<?xml version="1.0" standalone="no"?>
<!DOCTYPE svg PUBLIC "-//W3C//DTD SVG 20010904//EN"
 "http://www.w3.org/TR/2001/REC-SVG-20010904/DTD/svg10.dtd">
<svg version="1.0" xmlns="http://www.w3.org/2000/svg"
 width="768.000000pt" height="735.000000pt" viewBox="0 0 768.000000 735.000000"
 preserveAspectRatio="xMidYMid meet">
<metadata>
Created by potrace 1.16, written by Peter Selinger 2001-2019
</metadata>
<g transform="translate(0.000000,735.000000) scale(0.100000,-0.100000)"
fill="#000000" stroke="none">
<path d="M0 3675 l0 -3675 3840 0 3840 0 0 3675 0 3675 -3840 0 -3840 0 0
-3675z m4021 2518 c8 -8 27 -10 54 -6 26 3 45 1 49 -6 4 -6 16 -11 27 -11 10
0 19 -5 19 -11 0 -15 -133 -4 -138 10 -6 17 -355 2 -452 -19 -47 -10 -101 -22
-120 -25 -48 -9 -130 -35 -162 -51 -14 -8 -31 -14 -37 -14 -17 0 -161 -70
-231 -113 -107 -65 -201 -140 -289 -228 -76 -75 -191 -217 -191 -235 0 -4 -6
-15 -14 -23 -8 -9 -33 -54 -56 -101 -23 -47 -46 -94 -52 -104 -16 -29 -48
-126 -58 -174 -5 -23 -14 -51 -19 -61 -17 -31 -41 -257 -41 -383 0 -64 -4
-119 -9 -123 -25 -15 -33 243 -12 410 54 439 320 842 707 1071 96 57 237 122
304 140 14 3 39 12 55 19 34 14 125 34 205 45 90 13 447 7 461 -7z m-741 -276
c-14 -6 -27 -14 -30 -18 -3 -3 -14 -9 -25 -13 -11 -3 -32 -17 -47 -31 -15 -14
-37 -25 -49 -25 -17 0 -20 -4 -16 -22 4 -16 -5 -36 -31 -70 -31 -42 -41 -48
-62 -43 -14 4 -28 11 -31 17 -4 6 -17 -1 -32 -16 -14 -14 -32 -26 -40 -26 -8
0 -20 -7 -27 -15 -22 -26 -70 -57 -70 -45 0 19 131 141 192 178 20 13 38 26
40 30 5 11 167 92 183 92 8 0 15 5 15 10 0 6 12 10 28 9 l27 0 -25 -12z m892
-5025 c16 -16 -4 -41 -35 -47 -18 -4 -179 -5 -359 -3 -292 3 -329 5 -344 20
-13 13 -14 20 -6 30 8 10 85 12 373 11 200 -2 367 -7 371 -11z"/>
</g>
</svg>
