<?xml version="1.0" standalone="no"?>
<!DOCTYPE svg PUBLIC "-//W3C//DTD SVG 20010904//EN"
 "http://www.w3.org/TR/2001/REC-SVG-20010904/DTD/svg10.dtd">
<svg version="1.0" xmlns="http://www.w3.org/2000/svg"
 width="1082.000000pt" height="844.000000pt" viewBox="0 0 1082.000000 844.000000"
 preserveAspectRatio="xMidYMid meet">
<metadata>
Created by potrace 1.16, written by Peter Selinger 2001-2019
</metadata>
<g transform="translate(0.000000,844.000000) scale(0.100000,-0.100000)"
fill="#000000" stroke="none">
<path d="M0 4220 l0 -4220 5410 0 5410 0 0 4220 0 4220 -5410 0 -5410 0 0
-4220z m4475 3621 c-3 -11 -22 -29 -41 -41 -24 -13 -34 -26 -30 -35 3 -8 0
-15 -6 -15 -21 0 -113 -96 -137 -142 -13 -27 -30 -48 -37 -48 -8 0 -14 -8 -14
-18 0 -10 -5 -23 -12 -30 -17 -17 11 -16 57 4 48 20 64 13 34 -15 -16 -14 -20
-24 -12 -29 15 -10 -5 -27 -32 -27 -14 0 -21 -8 -23 -27 -2 -19 1 -28 11 -28
10 0 13 -8 9 -26 -3 -16 -9 -23 -18 -20 -8 3 -14 1 -14 -4 0 -6 7 -10 15 -10
22 0 38 -36 25 -59 -5 -11 -15 -21 -22 -24 -7 -2 -10 -8 -6 -12 4 -4 23 4 42
19 19 14 38 26 43 26 4 0 23 14 42 30 18 17 40 30 47 30 8 0 14 4 14 8 0 5 17
17 38 27 55 29 59 30 35 9 -49 -43 -68 -57 -117 -89 -28 -18 -74 -51 -103 -74
-29 -22 -56 -41 -60 -41 -5 0 -26 -16 -48 -35 -22 -20 -53 -42 -70 -50 -27
-13 -160 -107 -192 -134 -26 -23 -36 -10 -11 14 15 14 33 25 40 25 7 0 19 9
26 20 7 11 16 20 22 20 13 0 62 51 55 58 -3 3 -11 0 -17 -6 -7 -7 -21 -12 -32
-12 -17 0 -15 3 9 16 17 8 41 26 56 40 31 29 42 31 34 4 -4 -14 -2 -20 8 -20
9 0 17 3 19 8 2 4 27 25 56 46 53 38 64 56 37 56 -8 0 -15 5 -15 10 0 6 -8 10
-19 10 -12 0 -20 9 -24 26 -4 23 -2 25 19 20 14 -4 24 -2 24 4 0 5 -4 10 -9
10 -5 0 -7 9 -4 21 14 54 -64 106 -141 93 -53 -8 -91 -31 -105 -61 -16 -36
-14 -48 13 -63 14 -7 26 -22 28 -34 2 -13 12 -22 26 -24 12 -2 22 -9 22 -15 0
-14 -64 -67 -80 -67 -7 0 -28 -16 -47 -35 -34 -34 -59 -42 -33 -10 10 13 9 15
-8 15 -31 0 -36 16 -12 40 17 17 24 18 41 9 11 -6 27 -8 35 -5 12 5 12 9 2 26
-11 18 -10 23 5 34 18 14 23 36 9 36 -5 0 -17 -9 -27 -20 -10 -11 -22 -20 -27
-20 -5 0 -33 -18 -63 -40 -54 -40 -75 -48 -75 -31 0 12 54 51 69 51 6 0 11 5
11 10 0 6 -7 10 -15 10 -8 0 -15 -4 -15 -10 0 -5 -9 -10 -20 -10 -11 0 -20 -4
-20 -10 0 -5 -5 -10 -12 -10 -6 0 -22 -10 -35 -22 -24 -23 -31 -11 -13 23 16
29 -15 25 -44 -6 -13 -14 -34 -25 -49 -25 -14 0 -29 -5 -32 -10 -3 -6 -18 -7
-33 -4 -20 4 -23 3 -12 -5 8 -5 12 -11 10 -13 -3 -2 -21 -15 -40 -30 -43 -31
-95 -44 -115 -28 -9 8 -15 8 -20 0 -5 -8 -11 -8 -21 1 -12 10 -8 16 23 37 21
14 40 28 43 32 3 3 70 51 150 105 80 55 172 120 205 145 33 25 78 57 100 72
22 15 87 61 145 102 97 69 223 157 345 240 31 21 59 33 77 32 16 -1 36 5 46
15 21 20 26 17 17 -10z m665 -399 c0 -17 -65 -69 -360 -285 -208 -152 -690
-498 -1025 -736 -66 -47 -178 -126 -250 -177 -341 -243 -798 -554 -804 -548
-5 5 31 35 99 84 30 22 107 78 170 125 198 146 864 625 1316 946 404 287 571
404 682 479 50 34 92 67 92 74 0 13 48 45 68 46 6 0 12 -4 12 -8z m-150 -613
c-13 -8 -13 -10 0 -20 12 -8 10 -9 -7 -4 -24 7 -32 -9 -10 -19 6 -3 0 -4 -15
-1 -28 5 -39 -8 -15 -19 6 -3 1 -3 -12 0 -19 5 -23 3 -18 -9 4 -12 2 -14 -10
-10 -11 4 -14 3 -9 -6 11 -17 -24 -42 -49 -35 -13 3 -16 2 -8 -3 8 -6 -19 -31
-84 -78 -52 -39 -101 -76 -108 -82 -8 -7 -18 -13 -23 -13 -5 0 -17 -9 -27 -20
-10 -12 -24 -19 -31 -16 -8 3 -11 -1 -7 -10 6 -17 -18 -19 -35 -2 -9 9 -12 9
-12 0 0 -7 5 -12 12 -12 6 0 3 -9 -7 -20 -15 -16 -21 -18 -33 -7 -13 10 -14 9
-10 -3 6 -20 -19 -43 -38 -36 -12 4 -15 2 -10 -9 3 -9 0 -15 -9 -15 -8 0 -15
-5 -15 -11 0 -6 -9 -9 -20 -6 -11 3 -17 1 -14 -4 5 -9 -18 -39 -30 -39 -4 0
-158 -111 -191 -138 -41 -33 -106 -71 -117 -69 -7 2 -10 2 -5 0 14 -9 7 -25
-9 -19 -8 3 -13 2 -10 -2 2 -4 -12 -19 -32 -32 -20 -14 -46 -33 -56 -42 -11
-10 -25 -18 -32 -18 -7 0 -14 -4 -16 -8 -6 -16 -98 -73 -108 -67 -6 4 -7 -1
-3 -11 5 -13 2 -15 -18 -9 -15 4 -19 3 -11 -2 18 -14 -39 -53 -67 -46 -22 6
-30 -12 -8 -21 6 -3 0 -3 -15 0 -28 6 -39 -9 -15 -20 6 -3 3 -4 -8 -1 -13 3
-38 -9 -72 -35 -51 -38 -105 -70 -119 -70 -4 0 11 14 32 30 22 17 46 37 55 44
9 7 42 32 75 54 32 23 100 71 149 107 50 36 122 87 160 114 72 50 199 143 225
164 8 7 60 44 115 82 55 38 102 72 105 75 3 4 34 26 70 50 56 37 79 54 135 98
6 5 46 32 90 62 71 48 179 126 228 166 9 8 21 14 25 14 5 0 17 8 28 18 33 30
79 61 84 56 2 -3 -2 -9 -10 -15z m210 -379 c0 -5 -10 -15 -22 -21 -20 -11
-131 -94 -228 -171 -70 -55 -169 -128 -175 -128 -3 0 -16 -9 -28 -21 -12 -11
-58 -46 -102 -76 -44 -31 -138 -100 -210 -153 -137 -101 -150 -110 -230 -164
-28 -18 -63 -44 -78 -57 -15 -13 -79 -60 -143 -104 -64 -44 -139 -98 -168
-121 -103 -81 -182 -127 -161 -94 6 10 140 114 180 140 40 26 175 123 295 213
63 47 131 97 150 112 19 14 73 54 120 88 47 33 87 64 90 67 3 4 39 29 80 57
41 28 92 64 112 79 21 16 85 63 143 104 59 41 136 96 171 123 36 26 67 47 69
47 3 0 13 7 22 15 37 30 98 74 106 74 4 1 7 -3 7 -9z m3222 -973 c256 -135
308 -163 348 -185 86 -48 293 -152 303 -152 7 0 7 4 0 11 -20 20 -3 39 33 39
27 0 34 -4 34 -20 0 -13 -9 -22 -25 -26 -30 -7 -31 -12 -7 -31 55 -44 61 -46
93 -33 20 9 33 10 37 3 4 -5 15 -13 26 -16 10 -4 16 -13 12 -22 -4 -11 1 -13
24 -8 23 4 30 2 30 -10 0 -9 4 -27 10 -42 8 -22 13 -24 30 -15 12 6 24 19 27
28 4 9 13 22 22 28 22 17 7 39 -38 60 -46 22 -49 29 -21 44 27 14 80 -7 80
-32 0 -12 8 -18 21 -18 15 0 19 -5 15 -15 -4 -11 3 -17 24 -22 27 -5 28 -7 14
-18 -10 -6 -14 -17 -10 -23 7 -11 -6 -27 -50 -61 -15 -12 -24 -25 -19 -29 4
-4 10 -1 12 6 3 6 9 12 14 12 6 0 22 11 37 25 30 28 65 37 38 10 -8 -8 -18
-15 -22 -15 -8 0 -44 -40 -44 -49 0 -11 53 -31 80 -31 15 0 37 -11 50 -25 13
-14 34 -25 46 -25 31 0 39 -17 14 -30 -17 -9 -20 -17 -14 -48 4 -20 8 -39 11
-41 6 -7 93 82 93 95 0 7 -12 14 -27 16 -14 2 -28 8 -30 14 -4 14 42 64 59 64
27 0 78 -40 78 -61 0 -12 8 -23 20 -26 11 -3 20 -9 20 -14 0 -4 16 -13 35 -20
19 -7 35 -17 35 -21 0 -4 7 -8 15 -8 8 0 15 -4 15 -10 0 -5 5 -10 11 -10 5 0
26 -11 46 -25 29 -19 44 -23 77 -19 33 5 47 1 69 -16 32 -26 31 -42 -4 -50
-15 -4 -24 -13 -24 -25 0 -12 -6 -19 -14 -17 -19 4 -41 -17 -41 -39 0 -12 -7
-19 -20 -19 -21 0 -27 -15 -10 -25 24 -15 7 -25 -30 -19 -36 6 -40 5 -40 -15
0 -12 -4 -19 -10 -16 -12 8 -81 -39 -152 -104 -49 -45 -55 -48 -65 -32 -14 23
-101 64 -120 57 -8 -3 -11 -11 -7 -17 11 -18 4 -292 -8 -306 -19 -24 -23 -14
-20 56 3 63 2 70 -17 76 -18 5 -20 12 -15 44 7 42 -8 81 -31 81 -11 0 -15 13
-15 51 0 43 3 52 20 56 27 7 32 32 28 133 -3 71 -6 85 -19 84 -21 -2 -616
-464 -647 -503 -10 -12 -13 -72 -11 -249 1 -201 -1 -236 -15 -251 -19 -21 -23
-151 -4 -151 6 0 -2 -11 -18 -25 -16 -13 -32 -21 -36 -17 -13 13 -11 764 2
772 17 11 7 17 -205 130 -44 23 -92 51 -107 61 -14 11 -28 19 -31 19 -3 0 -41
20 -85 45 -44 25 -87 43 -94 40 -8 -3 -50 13 -94 36 -154 81 -249 132 -259
139 -5 4 -55 31 -110 60 -230 121 -285 152 -285 166 0 8 18 27 40 42 74 51
306 227 331 251 13 13 41 34 62 47 20 13 76 55 123 92 48 37 103 79 123 93 20
14 52 42 73 62 20 20 38 37 41 37 3 0 34 -15 69 -33z m-761 -765 c13 -10 49
-31 79 -47 67 -35 97 -52 175 -98 33 -19 101 -57 150 -84 50 -27 113 -62 140
-78 28 -15 81 -45 118 -66 38 -22 73 -39 77 -39 5 0 10 -3 12 -7 3 -9 40 -31
115 -70 28 -14 49 -31 47 -38 -3 -7 7 -10 31 -7 49 6 60 -23 19 -52 -16 -11
-59 -48 -95 -82 -36 -34 -76 -67 -90 -74 -36 -19 -151 -108 -259 -199 -52 -44
-104 -81 -115 -81 -35 -1 -75 -45 -75 -82 0 -53 10 -61 60 -48 34 9 45 9 51
-2 15 -23 10 -36 -22 -59 -26 -18 -35 -20 -50 -11 -32 20 -35 14 -35 -58 1
-40 6 -70 11 -69 6 0 28 16 50 34 22 19 101 80 175 136 74 57 162 126 196 154
84 72 169 134 198 145 l25 9 3 -107 3 -107 40 0 40 0 1 -107 c1 -58 -1 -110
-5 -116 -8 -11 -46 -32 -60 -32 -7 0 -11 37 -11 105 0 102 -12 155 -35 155 -6
0 -36 -22 -66 -48 -29 -26 -76 -64 -104 -84 -27 -20 -135 -104 -240 -187 -104
-83 -193 -151 -197 -151 -7 0 -12 77 -9 126 3 27 -25 39 -38 16 -9 -15 -11
-15 -12 3 -5 71 2 249 10 254 6 4 9 24 8 46 -3 39 -5 41 -87 88 -47 27 -107
63 -135 80 -27 16 -68 39 -90 51 -22 12 -42 23 -45 26 -3 3 -16 11 -30 18 -39
19 -125 68 -240 136 -274 163 -349 206 -358 206 -27 0 -19 32 14 57 20 16 52
43 72 61 21 18 72 58 115 89 43 30 81 62 84 69 3 8 11 14 18 14 8 0 20 6 27
13 22 21 191 151 223 172 17 10 36 25 43 32 18 18 45 16 73 -5z m-6147 -113
c59 -34 43 -53 -44 -54 l-55 0 0 -35 c-1 -33 -3 -35 -38 -38 -35 -3 -36 -4
-25 -25 7 -12 13 -29 13 -37 1 -15 13 -16 52 -5 21 7 22 6 10 -26 -9 -25 -9
-33 1 -36 25 -9 11 -23 -23 -23 -48 0 -111 27 -130 56 -21 32 -36 22 -28 -18
8 -39 -12 -35 -34 7 -36 67 -35 65 -4 65 23 0 30 5 33 22 4 30 171 146 201
140 4 -1 7 5 7 13 0 21 23 19 64 -6z m7226 -573 c0 -107 -1 -116 -22 -130 -12
-9 -31 -16 -40 -16 -17 0 -18 10 -16 125 3 136 -2 125 66 134 9 1 12 -28 12
-113z m-1952 -17 c31 -18 62 -35 67 -39 6 -4 35 -21 65 -37 30 -17 138 -78
239 -137 101 -58 187 -106 192 -106 5 0 9 -4 9 -10 0 -5 6 -10 13 -10 7 0 23
-9 35 -20 12 -11 26 -20 33 -20 6 0 23 -8 37 -18 15 -10 41 -24 57 -32 39 -18
76 -51 70 -61 -3 -4 0 -11 6 -15 6 -3 15 -1 18 5 6 9 15 8 37 -4 16 -8 41 -20
57 -25 15 -5 27 -17 27 -26 0 -14 8 -16 45 -12 37 5 45 3 46 -11 0 -9 0 -59
-1 -111 -1 -83 -3 -97 -21 -112 -43 -36 -49 -26 -49 82 0 91 -12 150 -31 150
-10 0 -64 -44 -110 -90 -20 -19 -65 -55 -100 -79 -57 -40 -136 -102 -302 -239
-29 -23 -63 -45 -77 -49 -33 -8 -80 -52 -73 -69 3 -8 0 -14 -6 -14 -6 0 -11
10 -11 23 0 25 -3 27 -155 112 -60 34 -161 92 -223 128 -62 37 -116 67 -119
67 -3 0 -82 47 -177 104 -94 57 -191 114 -216 127 -25 13 -48 28 -51 33 -4 5
-14 6 -24 3 -9 -4 -14 -3 -10 3 3 6 -1 13 -9 16 -33 13 -20 31 81 118 49 42
139 111 189 146 12 8 95 70 184 138 89 67 171 122 182 122 10 0 45 -14 76 -31z
m-5656 -295 c-5 -30 -5 -29 2 -244 4 -113 9 -212 12 -222 3 -10 -6 -24 -26
-38 -16 -12 -30 -30 -30 -41 0 -10 -4 -19 -10 -19 -19 0 -10 49 11 64 19 13
21 21 15 69 -11 83 -13 420 -3 440 11 23 33 16 29 -9z m153 -395 c3 -74 7
-146 10 -161 5 -20 1 -29 -14 -37 -12 -7 -23 -26 -27 -47 -7 -40 -25 -40 -35
0 -6 22 -3 31 17 48 20 18 23 27 17 62 -3 23 -10 46 -15 53 -6 7 -5 14 3 19 8
5 10 32 5 95 -6 78 -5 89 11 98 10 5 19 8 21 7 1 -2 5 -64 7 -137z m4667 114
c2 -5 23 -18 48 -31 55 -28 100 -53 133 -75 14 -9 41 -25 59 -36 18 -10 83
-49 143 -86 61 -37 151 -92 200 -122 50 -30 119 -72 154 -94 34 -21 67 -39 72
-39 5 0 9 -4 9 -10 0 -5 5 -10 10 -10 6 0 16 -4 23 -10 63 -52 79 -61 98 -58
22 3 22 1 20 -112 -1 -63 -7 -121 -13 -127 -6 -7 -21 -13 -34 -13 -13 0 -24
-5 -24 -11 0 -23 -115 -117 -128 -104 -4 4 10 20 30 37 101 81 99 76 99 185 1
130 1 133 -11 133 -5 0 -17 -14 -25 -30 -12 -23 -36 -40 -92 -65 -58 -27 -74
-38 -69 -51 4 -11 2 -15 -8 -11 -8 3 -52 -23 -103 -62 -48 -36 -146 -111 -218
-165 -71 -54 -141 -113 -155 -130 -55 -70 -66 -78 -100 -71 -25 6 -39 1 -76
-27 l-45 -33 5 -59 c4 -32 6 -79 6 -103 0 -40 3 -46 30 -56 43 -16 37 -28 -12
-25 l-43 3 -6 85 c-4 47 -3 88 2 91 10 6 -47 69 -63 69 -5 0 -42 23 -83 50
-41 28 -77 50 -80 50 -4 0 -25 13 -48 28 -56 38 -143 82 -162 82 -19 0 -229
116 -245 135 -17 21 -40 19 -40 -4 0 -10 -7 -24 -15 -31 -13 -10 -19 -8 -37
16 -13 16 -21 38 -19 52 3 27 -24 62 -49 62 -10 0 -23 7 -30 15 -18 21 -37 19
-43 -7 -6 -20 -7 -20 -42 10 -20 18 -42 32 -50 32 -19 0 -39 36 -25 45 15 9 2
25 -15 18 -8 -3 -15 0 -15 6 0 6 5 11 10 11 6 0 10 8 10 18 0 10 9 25 20 35
17 14 25 15 43 6 31 -16 385 -230 482 -291 82 -52 346 -214 448 -276 l57 -34
60 38 c32 22 59 44 60 49 0 6 20 18 44 28 47 20 91 67 61 67 -30 0 -14 29 32
59 25 17 50 31 54 31 14 0 183 134 244 192 40 40 62 55 70 48 7 -6 27 2 61 24
27 18 65 38 85 45 39 13 91 63 80 78 -7 11 -97 73 -106 73 -3 0 -24 12 -48 27
-23 15 -67 41 -99 58 -31 16 -103 61 -160 99 -56 38 -116 77 -133 86 -16 10
-79 48 -140 85 -60 37 -126 76 -145 87 -44 25 -47 28 -27 28 8 0 17 -3 19 -7z
m-4514 -233 c2 -163 2 -170 -17 -170 -15 0 -21 -8 -23 -32 -4 -38 -23 -48 -31
-16 -5 16 0 29 17 45 16 15 23 29 19 43 -6 21 -23 28 -23 9 0 -7 -11 0 -25 15
-18 20 -23 34 -19 52 8 30 22 40 37 25 20 -20 23 -11 21 67 -1 72 14 132 34
132 4 0 8 -77 10 -170z m7190 68 c2 -20 -5 -31 -30 -49 -18 -13 -40 -29 -48
-36 -84 -68 -152 -122 -180 -143 -18 -14 -59 -45 -90 -70 -31 -25 -74 -58 -95
-75 -21 -16 -56 -45 -77 -62 -22 -18 -41 -33 -43 -33 -1 0 -10 11 -19 24 -18
28 -42 7 330 296 52 41 125 99 162 128 36 29 70 51 76 49 6 -2 12 -15 14 -29z
m-869 -195 c1 -60 -2 -113 -7 -118 -4 -6 -19 -18 -33 -27 -14 -9 -46 -34 -71
-55 -24 -21 -57 -47 -72 -58 -16 -11 -74 -56 -130 -100 -197 -157 -336 -265
-340 -265 -3 0 -6 35 -8 78 -3 75 -4 77 -28 77 l-25 0 -2 122 c-1 101 1 122
14 127 9 4 22 1 29 -5 10 -8 25 -7 58 4 44 15 45 15 52 -6 11 -33 -63 -86 -81
-57 -3 6 -12 10 -18 10 -9 0 -13 -23 -14 -75 -1 -41 3 -75 8 -75 5 0 26 15 46
33 21 18 88 71 148 117 61 47 155 120 209 165 165 134 220 174 239 175 10 0
17 8 17 20 0 11 2 20 4 20 2 0 4 -48 5 -107z m-4755 -85 c91 -57 185 -115 210
-130 51 -30 56 -42 25 -58 -17 -10 -46 5 -215 110 -107 66 -201 123 -209 127
-15 5 -20 34 -8 46 14 15 39 3 197 -95z m4838 -135 c2 -111 0 -135 -19 -156
-9 -10 -25 -17 -36 -15 -17 3 -19 12 -19 105 1 57 -3 105 -9 108 -5 4 -9 13
-9 21 0 10 12 14 45 14 l45 0 2 -77z m-161 -30 c3 -38 -3 -59 -22 -78 -17 -17
-21 -18 -29 -5 -7 12 -12 11 -30 -5 -13 -12 -17 -22 -11 -28 6 -6 -1 -18 -19
-33 -33 -28 -40 -30 -40 -8 0 13 -2 13 -14 2 -7 -7 -24 -20 -36 -28 -13 -8
-30 -22 -39 -31 -9 -9 -32 -25 -51 -36 -60 -32 -80 -47 -80 -60 0 -7 7 -13 15
-13 8 0 15 -4 15 -10 0 -14 -28 -12 -32 2 -3 9 -17 2 -40 -18 -20 -18 -42 -34
-50 -37 -10 -4 -10 -8 2 -16 13 -10 13 -12 0 -21 -9 -5 -19 -5 -24 0 -5 5 -16
4 -26 -3 -14 -8 -22 -8 -34 2 -24 20 -20 26 24 46 22 10 47 26 57 37 9 10 42
34 73 53 31 19 70 50 88 69 18 20 39 36 47 36 8 0 36 20 62 45 26 25 59 52 73
60 14 8 41 33 60 54 38 43 59 51 61 24z m59 -263 c0 -14 -110 -107 -297 -250
-101 -78 -250 -196 -262 -208 -12 -12 -17 -11 -32 10 -10 12 -18 25 -18 28 0
5 237 193 250 198 5 2 23 17 40 33 17 16 85 71 151 121 67 51 126 98 132 105
13 14 36 -10 36 -37z m-910 -125 c0 -36 -25 -64 -83 -91 -34 -16 -84 -48 -112
-72 -27 -25 -61 -49 -75 -54 -28 -11 -78 -46 -188 -136 -42 -34 -105 -85 -139
-113 -35 -28 -63 -55 -63 -60 0 -14 -70 -79 -85 -79 -20 0 -20 44 0 64 8 8 25
23 38 33 13 10 34 37 47 61 l24 42 -22 16 c-21 15 -19 17 94 105 113 89 144
102 144 60 0 -26 16 -35 24 -14 4 11 1 22 -8 29 -16 11 -22 44 -8 44 4 0 56
38 116 85 60 46 113 82 118 79 4 -3 8 -14 8 -25 0 -18 4 -20 33 -14 17 4 52
19 77 34 46 29 60 30 60 6z m8 -347 c15 -15 16 -144 2 -153 -6 -4 -10 20 -10
64 0 80 -9 87 -57 48 -25 -21 -306 -238 -563 -434 -161 -123 -160 -122 -160
-212 0 -64 9 -77 47 -72 27 3 70 -24 54 -34 -6 -3 -21 -3 -34 1 -12 4 -30 7
-40 5 -33 -5 -47 18 -47 78 0 92 11 161 26 161 7 0 39 22 71 48 32 26 81 63
108 82 28 18 52 36 55 40 3 3 82 64 175 136 94 71 200 153 238 182 58 46 97
69 118 71 3 1 10 -4 17 -11z m-1384 -943 c-1 -16 -6 -43 -12 -60 -6 -16 -14
-42 -17 -57 -5 -28 -101 -128 -122 -128 -20 0 -34 38 -27 75 7 39 14 45 64 61
30 9 35 14 33 39 -1 16 2 35 8 41 6 7 8 17 5 23 -14 21 6 42 38 39 27 -3 31
-6 30 -33z"/>
<path d="M9883 4655 c-3 -9 -4 -17 -2 -18 2 -2 23 -15 47 -30 23 -15 42 -32
42 -37 0 -12 -146 -134 -166 -138 -8 -2 -22 4 -31 14 -11 11 -18 13 -21 5 -2
-6 -11 -11 -19 -11 -12 0 -13 3 -4 14 14 17 -10 25 -57 18 -35 -5 -43 -28 -14
-39 9 -3 38 -26 64 -50 26 -23 54 -43 63 -43 17 0 83 43 120 77 11 10 54 44
95 77 103 81 112 92 97 119 -7 12 -13 24 -14 25 -1 2 -10 -1 -20 -6 -13 -8
-25 -6 -46 6 -24 15 -29 15 -37 2 -7 -12 -12 -11 -28 8 -22 25 -60 29 -69 7z"/>
<path d="M8135 4340 c-9 -15 2 -28 45 -50 22 -11 59 -39 83 -63 24 -23 56 -48
71 -55 14 -6 26 -17 26 -24 1 -23 39 -60 55 -54 8 3 15 1 15 -4 0 -16 -43 -40
-72 -40 -37 0 -40 -37 -4 -46 25 -6 71 19 136 74 l34 29 -44 23 c-62 31 -126
76 -174 122 -66 63 -157 110 -171 88z"/>
<path d="M7810 4087 c0 -8 17 -22 38 -31 21 -10 63 -40 93 -67 52 -47 53 -50
35 -64 -11 -8 -26 -15 -33 -15 -7 0 -13 -4 -13 -10 0 -18 40 -10 52 10 20 31
45 24 70 -21 18 -32 27 -40 45 -36 13 2 23 -1 23 -7 0 -18 -54 -46 -77 -40
-32 9 -36 -21 -7 -41 25 -16 27 -15 65 12 22 15 56 39 74 52 39 27 37 37 -13
58 -52 22 -119 68 -177 123 -27 26 -67 57 -88 68 -43 25 -87 29 -87 9z"/>
<path d="M7220 3639 c0 -22 5 -29 20 -29 24 0 64 -24 113 -67 36 -32 47 -53
27 -53 -5 0 -10 -9 -10 -21 0 -20 1 -20 29 -3 25 15 32 15 45 5 9 -8 16 -19
16 -26 0 -20 36 -46 54 -39 24 9 20 -9 -8 -35 -16 -15 -33 -22 -53 -19 -22 2
-28 -1 -28 -17 0 -16 8 -21 38 -23 21 -2 37 1 37 7 0 6 4 11 10 11 16 0 99 64
99 78 1 7 -16 20 -36 29 -54 25 -125 73 -146 100 -21 26 -130 103 -146 103 -6
0 -11 4 -11 9 0 5 -11 11 -25 13 -22 5 -25 2 -25 -23z"/>
<path d="M6910 3392 c0 -10 18 -26 44 -40 42 -23 126 -97 126 -113 0 -4 10 -9
22 -11 12 -2 27 -13 33 -24 20 -40 37 -55 56 -49 28 9 23 -17 -6 -38 -14 -10
-33 -17 -43 -16 -47 4 -60 -20 -19 -38 20 -9 31 -6 68 18 24 16 56 37 71 47
38 23 35 38 -9 58 -56 26 -122 72 -176 123 -49 47 -132 101 -154 101 -7 0 -13
-8 -13 -18z"/>
</g>
</svg>
