<?xml version="1.0" standalone="no"?>
<!DOCTYPE svg PUBLIC "-//W3C//DTD SVG 20010904//EN"
 "http://www.w3.org/TR/2001/REC-SVG-20010904/DTD/svg10.dtd">
<svg version="1.0" xmlns="http://www.w3.org/2000/svg"
 width="275.000000pt" height="183.000000pt" viewBox="0 0 275.000000 183.000000"
 preserveAspectRatio="xMidYMid meet">
<metadata>
Created by potrace 1.16, written by Peter Selinger 2001-2019
</metadata>
<g transform="translate(0.000000,183.000000) scale(0.100000,-0.100000)"
fill="#000000" stroke="none">
<path d="M0 915 l0 -915 532 0 531 0 -24 23 c-13 13 -30 21 -38 18 -9 -3 -12
0 -7 7 11 19 29 14 66 -18 l35 -29 450 0 450 0 20 31 c11 17 27 34 35 36 13 5
13 3 1 -11 -12 -15 -11 -17 10 -17 31 0 53 -15 45 -29 -8 -12 125 -16 138 -4
12 12 117 12 109 0 -4 -6 -1 -7 6 -3 7 5 10 10 7 13 -10 10 119 81 160 89 44
8 54 18 54 57 l0 28 -47 -27 c-27 -15 -52 -32 -58 -38 -21 -23 -69 -48 -116
-60 -65 -17 -59 0 7 23 28 9 65 29 82 43 18 15 47 31 65 37 30 10 33 15 29 41
-6 39 14 85 45 105 14 9 22 19 19 23 -10 9 -36 11 -36 2 0 -4 -9 -10 -21 -13
-17 -5 -18 -3 -7 10 12 15 11 15 -10 4 -13 -7 -30 -27 -37 -44 -14 -31 -14
-31 -15 -7 -1 23 -2 23 -10 5 -7 -16 -9 -17 -9 -3 -1 9 4 20 9 23 15 10 2 25
-22 25 -21 0 -21 0 -3 20 11 12 20 29 21 38 2 12 -4 9 -21 -10 -34 -40 -46
-10 -16 38 11 17 22 20 55 17 l41 -4 -26 24 c-15 13 -24 29 -20 35 4 7 13 1
24 -17 24 -40 101 -75 214 -95 l33 -5 -1 170 c0 129 -3 168 -12 163 -9 -5 -9
-3 0 7 10 10 13 136 13 561 l0 548 -1375 0 -1375 0 0 -915z m2192 387 c110
-54 238 -192 213 -231 -8 -14 -75 47 -75 68 0 9 -11 24 -24 33 -23 17 -24 17
-41 -28 -20 -52 -49 -68 -105 -60 -19 3 -120 9 -225 12 -158 5 -198 3 -235
-10 -25 -9 -34 -13 -20 -10 48 12 226 15 300 6 71 -9 72 -9 23 -11 -47 -1 -53
-4 -67 -33 -20 -39 -20 -38 7 -39 20 -2 20 -2 1 -6 -11 -2 -57 10 -103 27 -58
21 -100 30 -142 30 -33 0 -68 4 -78 9 -13 7 -18 6 -18 -3 0 -7 5 -13 11 -13
36 1 41 -4 41 -40 0 -27 -6 -43 -22 -56 -13 -10 -23 -24 -23 -30 0 -6 7 -1 16
12 15 21 21 23 76 17 78 -9 137 -31 170 -63 29 -27 39 -53 15 -37 -7 5 -4 1 6
-8 36 -33 50 -22 24 19 -40 63 -84 84 -220 108 -36 6 -38 8 -35 38 3 30 5 32
43 30 22 -1 76 -16 120 -34 62 -25 95 -33 147 -33 62 -1 66 -2 51 -18 -9 -10
-20 -15 -25 -12 -4 3 -7 0 -6 -8 2 -7 -3 -12 -11 -10 -12 3 -12 1 -1 -15 8
-10 11 -15 6 -11 -5 4 -17 3 -28 -3 -16 -9 -17 -13 -6 -27 10 -12 10 -14 1 -8
-7 4 -13 3 -13 -3 0 -35 69 -8 96 38 10 16 25 29 33 29 9 0 32 2 51 6 l35 6
-30 -17 c-16 -9 -37 -24 -46 -34 -9 -10 -20 -15 -24 -11 -4 4 -5 -12 -2 -35 3
-24 1 -43 -4 -43 -5 0 -8 3 -8 8 4 21 -2 42 -11 42 -6 0 -8 -12 -5 -27 3 -16
3 -23 -1 -16 -7 16 -34 5 -34 -14 0 -10 8 -13 28 -10 15 2 21 2 15 0 -18 -6
-16 -33 3 -33 8 0 12 5 9 10 -3 6 -1 10 4 10 6 0 11 -2 11 -4 0 -2 3 -11 6
-19 4 -11 -1 -13 -21 -9 -15 2 -29 11 -32 18 -4 11 -8 11 -20 -1 -8 -9 -20
-12 -26 -8 -7 3 -9 3 -5 -2 5 -5 -16 -34 -45 -66 -28 -31 -62 -71 -75 -87 -23
-31 -17 -47 12 -36 10 4 19 -3 27 -20 12 -26 39 -36 39 -15 0 5 4 8 9 5 5 -4
11 0 14 6 2 7 8 10 12 6 13 -12 -3 -52 -46 -107 -31 -41 -38 -56 -27 -62 9 -6
4 -9 -14 -9 -31 0 -38 -16 -10 -23 9 -3 4 -5 -13 -4 -26 2 -30 -1 -27 -23 2
-19 0 -22 -8 -10 -5 8 -10 10 -10 4 0 -7 -8 -14 -17 -17 -10 -2 -25 -8 -34
-11 -10 -5 -19 -1 -22 8 -8 21 1 44 20 48 10 2 16 19 18 55 l4 52 -51 -36
c-47 -34 -50 -35 -46 -14 2 16 20 32 55 50 39 21 49 31 41 39 -14 14 -32 16
-23 2 3 -5 -7 -12 -22 -15 -15 -3 -44 -9 -65 -14 -41 -9 -43 3 -3 33 18 14 25
28 25 52 0 19 -4 34 -10 34 -5 0 -10 -4 -10 -9 0 -5 -19 -11 -42 -15 -23 -4
-46 -12 -51 -19 -10 -15 -4 47 13 128 20 96 18 94 53 52 18 -20 39 -37 47 -37
23 0 121 112 116 133 -4 14 -2 16 9 7 9 -8 26 -9 47 -4 27 6 29 8 13 13 -11 3
-40 17 -64 30 -38 20 -53 22 -100 17 -30 -4 -63 -14 -73 -23 -10 -9 -18 -11
-18 -6 0 6 17 26 38 43 l37 32 -35 -24 c-19 -14 -42 -38 -50 -55 -9 -16 -25
-42 -36 -58 -18 -24 -22 -25 -27 -11 -4 10 -3 15 3 11 12 -7 12 -3 4 20 -6 13
-9 14 -16 3 -13 -19 0 186 14 217 6 14 14 25 17 25 3 0 7 26 8 58 2 31 7 58
13 60 5 2 10 11 10 21 0 24 56 74 119 106 94 47 183 65 306 62 102 -2 116 -5
177 -35z m-1635 -32 c162 -38 224 -68 291 -145 41 -47 76 -108 87 -155 6 -25
5 -25 -57 -23 -73 2 -86 -3 -61 -24 10 -8 12 -11 4 -7 -7 3 -17 1 -21 -6 -5
-7 -10 -8 -14 -2 -3 5 4 22 17 38 12 16 20 36 19 46 -4 24 10 23 32 -1 10 -11
26 -19 37 -18 22 2 22 0 7 32 -11 24 -12 25 -32 8 -12 -10 -18 -14 -14 -9 4 5
0 15 -10 23 -13 10 -14 13 -2 11 8 -2 18 -7 22 -13 5 -6 8 -5 8 2 0 15 -37 36
-49 29 -5 -3 -15 2 -22 11 -10 12 -10 14 -1 9 7 -4 12 -2 12 8 0 8 -5 18 -12
22 -7 4 -8 3 -4 -4 4 -7 2 -12 -3 -12 -6 0 -11 5 -11 11 0 6 -9 9 -20 6 -11
-3 -23 -1 -26 5 -3 5 -13 7 -21 4 -8 -3 -12 -2 -9 3 3 5 -1 11 -9 15 -8 3 -14
2 -14 -2 3 -19 -2 -33 -10 -28 -5 4 -11 1 -13 -6 -3 -8 -12 -2 -22 15 -10 15
-26 27 -35 27 -14 0 -14 2 -1 10 11 7 2 9 -28 6 -24 -2 -47 -7 -50 -11 -4 -4
9 -4 28 0 l35 7 -23 -22 c-12 -11 -19 -27 -16 -33 4 -7 -1 -5 -12 4 -10 8 -31
20 -46 27 -20 8 -26 16 -22 29 5 15 4 16 -5 3 -10 -14 -16 -7 -12 13 1 5 -3 5
-9 2 -8 -5 -6 -13 6 -26 17 -19 17 -19 -7 -16 -26 4 -32 23 -15 47 9 13 8 13
-5 3 -9 -7 -20 -9 -25 -5 -4 4 -3 0 4 -9 10 -13 8 -19 -8 -34 -11 -10 -17 -21
-15 -25 7 -11 -22 -6 -32 5 -4 4 -3 5 4 1 6 -3 14 -2 18 4 4 6 -7 10 -26 10
-26 0 -29 2 -20 14 9 11 9 16 0 22 -7 4 -9 3 -5 -4 3 -6 1 -14 -5 -18 -8 -5
-10 1 -7 20 4 20 2 24 -7 16 -7 -6 -11 -20 -8 -30 5 -18 -5 -25 -30 -21 -5 1
-6 -3 -2 -9 4 -7 12 -7 26 0 13 7 25 8 37 1 10 -7 12 -11 4 -11 -7 0 -10 -5
-7 -10 4 -6 11 -8 16 -5 5 4 9 1 9 -5 0 -6 -11 -8 -26 -6 -19 4 -24 1 -20 -10
3 -7 1 -14 -5 -14 -6 0 -7 -6 -2 -12 11 -19 12 -37 3 -43 -5 -3 -7 4 -5 15 4
19 3 19 -21 3 -19 -12 -22 -18 -12 -24 10 -7 9 -9 -4 -9 -10 0 -18 5 -18 11 0
7 -10 9 -28 5 -26 -6 -26 -6 -8 9 11 8 17 15 14 15 -4 0 -13 3 -22 6 -12 4
-16 0 -16 -16 0 -11 -4 -18 -10 -15 -15 9 -12 -61 3 -74 8 -6 18 -7 22 -3 5 4
5 1 1 -6 -10 -16 11 -42 28 -36 10 4 12 -2 8 -21 -3 -20 -7 -23 -13 -13 -7 10
-9 8 -9 -7 -1 -19 -1 -19 -11 -2 -6 10 -8 24 -5 32 2 7 -2 19 -10 26 -13 10
-17 10 -25 -2 -6 -9 -9 9 -9 52 0 91 10 160 23 152 5 -3 7 -1 3 5 -13 21 14
62 70 103 111 81 173 93 321 59z m1826 -206 c3 -4 0 -19 -8 -35 -8 -15 -15
-34 -14 -41 0 -7 7 1 14 18 8 17 20 36 29 43 13 11 16 6 26 -28 6 -23 8 -47 4
-53 -4 -7 -3 -8 4 -4 8 5 12 0 12 -13 0 -12 3 -21 8 -21 4 0 7 -12 8 -27 0
-16 2 -59 3 -98 4 -99 3 -104 -9 -85 -8 11 -9 2 -6 -30 3 -25 2 -40 -2 -34 -4
6 -15 10 -24 8 -14 -2 -16 1 -8 16 18 33 -59 66 -89 38 -10 -11 -11 -10 -6 5
4 9 13 18 21 18 8 1 19 3 24 4 6 1 13 3 16 4 4 0 0 9 -7 19 -13 15 -12 16 3 3
10 -7 15 -17 12 -22 -3 -5 2 -9 12 -9 11 0 14 4 7 13 -5 6 -15 26 -21 42 -12
28 -11 29 4 10 8 -11 20 -19 25 -17 6 1 8 -2 5 -7 -10 -15 5 -41 23 -41 14 0
14 2 1 10 -8 5 -11 10 -7 10 5 0 -4 22 -20 50 -15 27 -32 48 -38 46 -5 -2 -9
-9 -7 -15 1 -7 -2 -10 -8 -6 -5 3 -10 1 -10 -4 0 -6 -5 -11 -12 -11 -9 0 -9 3
-1 11 6 6 9 17 7 24 -3 7 -1 16 5 20 7 4 8 -1 4 -12 -6 -16 -5 -16 10 -4 16
13 15 21 -6 49 -8 11 -12 11 -19 0 -6 -8 -6 -4 -2 12 5 14 9 39 10 55 0 17 2
45 2 63 2 30 11 40 25 26z m-1101 -205 c15 -8 19 -8 14 0 -4 6 -2 11 3 11 11
0 14 -12 12 -45 -2 -17 0 -17 8 -5 9 13 11 13 11 -2 0 -16 23 -24 53 -19 4 0
7 -3 7 -9 0 -5 -13 -8 -30 -6 -22 2 -30 -1 -30 -13 0 -11 -3 -13 -8 -4 -6 9
-13 7 -27 -10 -11 -12 -20 -26 -20 -32 0 -17 -29 -16 -50 0 -20 16 -19 16 2 6
25 -13 50 -15 39 -3 -7 7 -11 8 -37 11 -5 0 -8 5 -5 9 3 5 -5 8 -17 8 -16 -1
-23 6 -25 22 -3 16 -12 25 -35 30 -18 3 -36 5 -42 3 -5 -1 -6 1 -2 5 4 5 22 7
40 6 24 -2 36 3 49 20 19 26 59 34 90 17z"/>
<path d="M1853 1285 c-33 -7 -74 -21 -90 -30 -15 -9 -20 -14 -11 -11 21 6 32
-20 12 -28 -10 -4 -13 -2 -8 7 4 6 4 9 -1 5 -4 -4 -15 -2 -23 5 -13 10 -14 9
-7 -2 6 -11 4 -13 -9 -8 -12 5 -30 -6 -59 -35 -23 -22 -35 -36 -26 -29 29 20
30 -2 2 -33 -23 -24 -20 -23 14 6 23 20 54 43 70 51 93 47 245 51 473 12 14
-3 7 2 -15 9 -25 9 -33 15 -20 16 l20 1 -20 9 c-18 8 -18 9 -2 9 10 1 15 6 12
11 -4 7 -12 7 -25 0 -33 -18 -36 -11 -5 11 l30 20 -35 -6 c-27 -5 -32 -4 -20
5 11 9 4 10 -30 5 -33 -4 -41 -3 -30 4 22 16 -120 13 -197 -4z"/>
</g>
</svg>
